<?xml version="1.0" standalone="no"?>
<!DOCTYPE svg PUBLIC "-//W3C//DTD SVG 20010904//EN"
 "http://www.w3.org/TR/2001/REC-SVG-20010904/DTD/svg10.dtd">
<svg version="1.0" xmlns="http://www.w3.org/2000/svg"
 width="512.000000pt" height="512.000000pt" viewBox="0 0 512.000000 512.000000"
 preserveAspectRatio="xMidYMid meet">
<metadata>
Created by potrace 1.11, written by Peter Selinger 2001-2013
</metadata>
<g transform="translate(0.000000,512.000000) scale(0.100000,-0.100000)"
fill="#9C27B0" stroke="none">
<path d="M0 2560 l0 -2560 73 1 72 0 45 53 c25 29 311 335 635 680 325 344
591 630 593 634 1 4 -267 95 -595 203 -328 108 -598 200 -600 205 -1 5 661
380 1472 833 811 453 1475 826 1475 830 0 3 -239 69 -530 145 -292 77 -530
142 -530 146 0 7 2961 1380 2978 1380 6 0 12 -6 12 -13 0 -7 -227 -215 -505
-462 -278 -247 -504 -453 -503 -457 2 -4 142 -97 312 -206 171 -109 311 -203
312 -208 2 -5 -508 -404 -1132 -888 -624 -483 -1134 -881 -1134 -885 0 -3 251
-46 558 -95 306 -49 565 -92 576 -96 13 -5 -189 -116 -725 -398 -409 -215
-1176 -618 -1704 -896 l-960 -506 2463 0 2462 0 0 2560 0 2560 -2560 0 -2560
0 0 -2560z"/>
</g>
</svg>
